<svg id="Layer_1" data-name="Layer 1" xmlns="http://www.w3.org/2000/svg" width="1366" height="768" viewBox="0 0 1366 768"><defs><style>.cls-1{fill:#61dafb;}.cls-2{fill:#563d7c;}.cls-3{fill:#fff;}.cls-4{fill:#41b883;}.cls-5{fill:#34495e;}.cls-6{fill:#dd0031;}.cls-7{fill:#c3002f;}.cls-8{fill:#639;}.cls-9{fill:#34bdb2;}.cls-10{fill:#002a41;}.cls-10,.cls-11{stroke:#848484;stroke-miterlimit:10;stroke-width:0.18px;fill-rule:evenodd;}.cls-11{fill:#0071b5;}.cls-12{fill:#ff3e00;}</style></defs><g id="React"><path class="cls-1" d="M377,619.64c0-17.87-22.38-34.8-56.68-45.3,7.92-35,4.4-62.79-11.11-71.69a24.08,24.08,0,0,0-12.31-3.08v12.26a12.69,12.69,0,0,1,6.27,1.43c7.47,4.29,10.72,20.61,8.19,41.61-.61,5.17-1.6,10.61-2.8,16.17a266.43,266.43,0,0,0-34.91-6,269.23,269.23,0,0,0-22.87-27.48c17.92-16.66,34.74-25.79,46.18-25.79V499.51h0c-15.12,0-34.91,10.78-54.93,29.47-20-18.58-39.8-29.25-54.92-29.25V512c11.38,0,28.26,9.07,46.18,25.62A260.09,260.09,0,0,0,210.59,565a257.46,257.46,0,0,0-35,6.05c-1.26-5.5-2.2-10.83-2.86-15.94-2.58-21,.61-37.33,8-41.67a12.22,12.22,0,0,1,6.32-1.43V499.79h0a24.51,24.51,0,0,0-12.42,3.08c-15.45,8.9-18.91,36.67-10.94,71.52-34.2,10.56-56.46,27.43-56.46,45.25s22.37,34.8,56.68,45.3c-7.92,35-4.4,62.78,11.1,71.68a24.2,24.2,0,0,0,12.37,3.08c15.12,0,34.91-10.77,54.92-29.46,20,18.58,39.81,29.24,54.93,29.24a24.51,24.51,0,0,0,12.42-3.08c15.45-8.9,18.91-36.66,10.94-71.52C354.73,654.38,377,637.45,377,619.64ZM305.42,583c-2,7.09-4.56,14.4-7.42,21.71-2.25-4.4-4.62-8.79-7.2-13.19s-5.22-8.69-7.92-12.87C290.69,579.78,298.22,581.21,305.42,583Zm-25.18,58.55c-4.29,7.42-8.68,14.45-13.25,21-8.19.71-16.49,1.1-24.85,1.1s-16.6-.39-24.73-1q-6.85-9.81-13.31-20.89c-4.18-7.2-8-14.51-11.43-21.88,3.4-7.37,7.25-14.73,11.38-21.93,4.28-7.43,8.68-14.46,13.25-21,8.19-.71,16.49-1.09,24.84-1.09s16.61.38,24.74,1q6.86,9.81,13.31,20.89c4.18,7.2,8,14.51,11.43,21.88C288.16,627,284.37,634.31,280.24,641.52ZM298,634.37c3,7.37,5.5,14.73,7.59,21.88-7.21,1.76-14.79,3.24-22.65,4.4,2.69-4.24,5.38-8.58,7.91-13S295.75,638.77,298,634.37ZM242.25,693A228.5,228.5,0,0,1,227,675.44c4.95.22,10,.38,15.12.38s10.28-.11,15.28-.38A215.29,215.29,0,0,1,242.25,693Zm-40.9-32.38c-7.8-1.16-15.34-2.59-22.54-4.35,2-7.09,4.57-14.4,7.42-21.71,2.26,4.4,4.62,8.8,7.21,13.19S198.66,656.47,201.35,660.65ZM242,546.24a226.83,226.83,0,0,1,15.28,17.6c-4.95-.22-10-.39-15.12-.39s-10.28.11-15.28.39A213.82,213.82,0,0,1,242,546.24ZM201.3,578.62c-2.7,4.24-5.39,8.58-7.92,13s-4.89,8.8-7.15,13.2c-3-7.37-5.49-14.74-7.58-21.88C185.85,581.26,193.44,579.78,201.3,578.62Zm-49.76,68.83c-19.46-8.3-32-19.18-32-27.81s12.59-19.58,32.05-27.82c4.73-2,9.9-3.85,15.23-5.55a265.76,265.76,0,0,0,12.37,33.48,259.82,259.82,0,0,0-12.2,33.31C161.49,651.36,156.33,649.49,151.54,647.45ZM181.12,726c-7.48-4.28-10.72-20.61-8.19-41.61.6-5.17,1.59-10.61,2.8-16.17a266.43,266.43,0,0,0,34.91,6,267.93,267.93,0,0,0,22.87,27.48c-17.92,16.66-34.74,25.79-46.18,25.79A13.12,13.12,0,0,1,181.12,726Zm130.4-41.89c2.59,21-.6,37.33-8,41.67a12.25,12.25,0,0,1-6.32,1.43c-11.38,0-28.26-9.07-46.18-25.62a260.09,260.09,0,0,0,22.7-27.43,256.18,256.18,0,0,0,35-6A154.23,154.23,0,0,1,311.52,684.12Zm21.17-36.67c-4.73,2-9.9,3.85-15.23,5.56a263.64,263.64,0,0,0-12.37-33.48,260.59,260.59,0,0,0,12.21-33.32c5.44,1.7,10.61,3.57,15.44,5.61,19.47,8.3,32.06,19.18,32.06,27.82S352.15,639.21,332.69,647.45Z"/><circle class="cls-1" cx="242.09" cy="619.64" r="25.12"/></g><g id="Bootstrap"><path class="cls-2" d="M810.09,713.68a34.64,34.64,0,0,1-34.53,34.54H637.41a34.64,34.64,0,0,1-34.53-34.54V575.54A34.64,34.64,0,0,1,637.41,541H775.56a34.64,34.64,0,0,1,34.53,34.54Z"/><path class="cls-3" d="M659.18,586h58.75c10.83,0,19.54,2.47,26.07,7.45s9.82,12.46,9.82,22.52a26.92,26.92,0,0,1-4.47,15.64,28.84,28.84,0,0,1-12.8,10.09v.34q11.18,2.38,16.93,10.56c3.83,5.49,5.76,12.33,5.76,20.59a34.5,34.5,0,0,1-2.54,13.27,26.94,26.94,0,0,1-8,10.67,40.54,40.54,0,0,1-13.88,7.11,68.14,68.14,0,0,1-20.15,2.64H659.18V586Zm21.17,50.62h34.53a18.78,18.78,0,0,0,12.7-4.33c3.38-2.91,5.08-7.05,5.08-12.46,0-6.1-1.53-10.4-4.57-12.87s-7.45-3.72-13.21-3.72H680.35v33.38Zm0,53h37.41c6.43,0,11.44-1.66,15-5s5.34-8.06,5.34-14.15-1.76-10.57-5.34-13.82-8.54-4.81-15-4.81H680.35Z"/></g><g id="Vuejs"><path class="cls-4" d="M939.75,326l-25.42,44-25.42-44H804.24L914.33,516.69,1024.42,326Z"/><path class="cls-5" d="M939.75,326l-25.42,44-25.42-44H848.27l66.06,114.41L980.39,326Z"/></g><g id="Angular"><polygon class="cls-6" points="433.88 278 433.88 278 433.88 278 324.2 317.11 340.93 462.14 433.88 513.63 433.88 513.63 433.88 513.63 526.84 462.14 543.57 317.11 433.88 278"/><polygon class="cls-7" points="433.88 278 433.88 304.15 433.88 304.04 433.88 423.38 433.88 423.38 433.88 513.63 433.88 513.63 526.84 462.14 543.57 317.11 433.88 278"/><path class="cls-3" d="M433.88,304,365.31,457.78h25.57l13.78-34.4h58.2l13.79,34.4h25.56L433.88,304Zm20,98.14H413.85l20-48.19Z"/></g><g id="Gatsby"><circle class="cls-8" cx="241.86" cy="161.68" r="110.68"/><path class="cls-3" d="M180.19,223.35a85.85,85.85,0,0,1-25.3-60.09l86.18,85.38C218.93,247.85,196.79,240,180.19,223.35Zm80.64,22.92L157.26,142.71c8.7-38.74,43.49-68,84.6-68a87.19,87.19,0,0,1,70.36,35.57l-11.86,10.28c-13.44-18.18-34.79-30-58.5-30-30.84,0-56.93,19.76-67.2,47.43l90.91,90.92c22.93-7.91,40.32-27.67,45.86-51.39H273.48V161.68h55.34C328.82,202.79,299.57,237.58,260.83,246.27Z"/></g><g id="Semantic-UI"><path class="cls-9" d="M1024,61h198V259H1024Z"/><path class="cls-3" d="M1154.29,128.32c-10.45-6.06-19.73-10.83-31.87-10.62-6.94.12-12.91,3.89-14.16,10.8-1.17,6.43,4.55,10,10.49,12.18,9.86,3.63,18.44,7.47,28.13,11.5,17.61,7.34,26.64,19.23,25.57,34.48-1.36,19.4-13,33.32-31.59,37.91-24.25,6-47.8-3.14-67.7-15.89,5-7.65,10.85-12.87,15.84-20.48,11.5,4.9,20.53,11.51,32.55,12.54,8.48.73,18.09.32,20-9.64,1.72-9-6.09-13.79-13.72-16.48-9.07-3.2-18.13-7.12-27-10.76-16.46-6.72-23.15-19.86-22-35.35,0-9.08,7.54-27.43,26-33.13,28.38-8.78,44,.21,64.59,13.43-5.46,7.23-9.67,12.37-15.07,19.51"/></g><g id="Backbone"><g id="BackBone.JS"><path id="Path" class="cls-10" d="M621.7,59V172.3L706,220.37V187.69l-56.41-32.16V105L706,137.18V107.07Z"/><path id="path2996" class="cls-11" d="M790.36,59V172.3L706,220.37V187.69l56.42-32.16V105L706,137.18V107.07Z"/><path id="path2998" class="cls-11" d="M621.7,268.49V155.19L706,107.12V139.8L649.62,172V219.9L706,187.74v32.68Z"/><path id="path3000" class="cls-10" d="M790.36,268.49V155.19L706,107.12V139.8L762.45,172V219.9L706,187.74v32.68Z"/></g></g><g id="Svelte"><path class="cls-12" d="M1205.63,550.13c-21-30.3-62.92-39.17-93-20.07l-53.08,34a60.32,60.32,0,0,0-27.41,40.72,63.21,63.21,0,0,0,6.37,41.11,58.3,58.3,0,0,0-9.07,22.78,65,65,0,0,0,11,49c21.23,30.3,62.92,39.18,93,20.07L1186.53,704a60.3,60.3,0,0,0,27.4-40.73,63.12,63.12,0,0,0-6.37-41.1,58.14,58.14,0,0,0,9.07-22.78,63.56,63.56,0,0,0-11-49.22"/><path class="cls-3" d="M1107.39,720.56a42.08,42.08,0,0,1-45.16-16.79,39.11,39.11,0,0,1-6.75-29.53c.38-1.74.77-3.29,1.15-5l1-3.09,2.7,1.93a70.31,70.31,0,0,0,20.85,10.42l1.93.58-.2,1.93a12.7,12.7,0,0,0,15.83,13.13,16.71,16.71,0,0,0,3.28-1.36L1154.87,659a10.93,10.93,0,0,0,5-7.34,12,12,0,0,0-1.93-8.87,12.67,12.67,0,0,0-13.7-5,16.1,16.1,0,0,0-3.28,1.35L1120.71,652a35.85,35.85,0,0,1-10.81,4.63,42.06,42.06,0,0,1-45.16-16.79,39,39,0,0,1-6.56-29.53,36.54,36.54,0,0,1,16.6-24.51l53.07-33.78a40.88,40.88,0,0,1,56,12,39.06,39.06,0,0,1,6.76,29.53,49.12,49.12,0,0,1-1.35,5l-1,3.09-2.7-1.93a70.4,70.4,0,0,0-20.84-10.43l-1.93-.57.19-1.93a13,13,0,0,0-2.12-7.92,12.68,12.68,0,0,0-13.71-5,17,17,0,0,0-3.28,1.36L1091,609a11,11,0,0,0-5,7.33,12,12,0,0,0,1.93,8.88,12.67,12.67,0,0,0,13.7,5,16.43,16.43,0,0,0,3.29-1.35L1125.15,616a40.84,40.84,0,0,1,56,12,39.08,39.08,0,0,1,6.76,29.52,36.6,36.6,0,0,1-16.6,24.52l-53.08,33.77a42.19,42.19,0,0,1-10.81,4.83"/></g></svg>